<?xml version="1.0" encoding="utf-8"?>
<!-- Generator: Adobe Illustrator 24.3.0, SVG Export Plug-In . SVG Version: 6.00 Build 0)  -->
<svg version="1.1" id="Calque_1" xmlns="http://www.w3.org/2000/svg" xmlns:xlink="http://www.w3.org/1999/xlink" x="0px" y="0px"
	 viewBox="0 0 841.89 595.28" style="enable-background:new 0 0 841.89 595.28;" xml:space="preserve">
<style type="text/css">
	.st0{fill:#FFFFFF;}
</style>
<path class="st0" d="M1521.59,403.58c0,6.31-43.65,11.42-97.5,11.42c-53.85,0-97.5-5.11-97.5-11.42c0-6.31,43.65-11.42,97.5-11.42
	C1477.94,392.16,1521.59,397.27,1521.59,403.58"/>
<path class="st0" d="M1558.97,207.32c48.79-22.2,36.76-63.42,35.64-69.38c-8.94,6.08-38.76,27.68-82.95,32.82l-12.49,113.19
	c30.88-1.36,49.2-19.69,54.11-26.42c-1.31,0.13-13.11,2.01-24.9-6.62c48.79-2.25,56.97-42.58,57.61-45.31
	C1582.99,206.55,1568.17,209.79,1558.97,207.32"/>
<path class="st0" d="M1289.21,207.32c-48.79-22.2-36.76-63.42-35.64-69.38c8.94,6.08,38.76,27.68,82.95,32.82l12.49,113.19
	c-30.88-1.36-49.19-19.69-54.11-26.42c1.31,0.13,13.11,2.01,24.9-6.62c-48.78-2.25-56.97-42.58-57.61-45.31
	C1265.18,206.55,1280,209.79,1289.21,207.32"/>
<path class="st0" d="M1512.61,110.82c0-18.24-13.55-33.39-31.15-36c-3.67-16.24-18.27-28.41-35.67-28.41
	c-10.04,0-19.45,4.05-26.27,11.09c-3.3-0.95-6.74-1.45-10.19-1.45c-13.39,0-25.59,7.4-31.95,18.73c-1.68-0.23-3.38-0.35-5.1-0.35
	c-20.16,0-36.56,16.33-36.56,36.4c0,12.08,5.94,22.79,15.07,29.42c-1.7,32.98,2.05,65.97,5.7,97.91
	c4.71,41.24,9.58,76.95,2.26,118.6c-0.43,2.44,0.25,4.95,1.85,6.84c1.6,1.9,3.96,2.99,6.45,2.99h114.24c2.49,0,4.85-1.1,6.45-2.99
	c1.6-1.9,2.28-4.4,1.85-6.84c-7.33-41.65-2.45-77.36,2.26-118.6c3.65-31.94,7.41-64.94,5.7-97.91
	C1506.67,133.62,1512.61,122.9,1512.61,110.82 M1372.28,91.19c2.41,0,4.78,0.43,7.02,1.29c2.2,0.84,4.65,0.72,6.76-0.33
	c2.11-1.05,3.68-2.92,4.33-5.18c2.42-8.34,10.21-14.16,18.93-14.16c3.17,0,6.2,0.73,9.01,2.17c3.84,1.97,8.56,0.73,10.92-2.88
	c3.66-5.6,9.84-8.94,16.53-8.94c10.84,0,19.66,8.75,19.71,19.53c0,0.06,0,0.13,0,0.19c0,2.34,0.98,4.56,2.7,6.15
	c1.72,1.59,4.03,2.39,6.36,2.21c0.57-0.04,1.06-0.06,1.5-0.06c10.87,0,19.71,8.8,19.71,19.63c0,10.82-8.84,19.63-19.71,19.63h-63.36
	c-4.65,0-8.42,3.76-8.42,8.39v26.57c0,3.34-2.73,6.06-6.09,6.06c-3.36,0-6.09-2.72-6.09-6.06v-26.57c0-4.63-3.77-8.39-8.42-8.39
	h-11.38c-10.87,0-19.71-8.8-19.71-19.63C1352.57,100,1361.41,91.19,1372.28,91.19 M1376.87,349.81c0.66-4.9,1.17-9.8,1.55-14.7h91.5
	c0.38,4.9,0.89,9.79,1.55,14.7H1376.87z M1475.1,236.25c-3.33,29.13-6.73,50.41-6.03,80.49h-89.82c0.7-30.08-2.7-51.35-6.03-80.48
	c-3.35-29.36-6.79-59.62-5.85-89.38c1.61,0.22,3.24,0.34,4.91,0.34h2.96v18.18c0,12.59,10.29,22.84,22.94,22.84
	c12.65,0,22.94-10.24,22.94-22.84v-18.18h54.94c1.67,0,3.3-0.12,4.91-0.34C1481.9,176.63,1478.46,206.9,1475.1,236.25"/>
<path class="st0" d="M1142.67,503.25c-0.99,3.02-2.33,5.66-4.03,7.92c-1.7,2.26-3.63,4.15-5.8,5.66c-2.17,1.51-4.38,2.69-6.65,3.54
	l23.33,39.03c-1.79,0.75-3.68,1.34-5.66,1.77c-1.98,0.42-3.87,0.63-5.66,0.63c-3.49,0-6.41-0.75-8.77-2.26
	c-2.36-1.51-4.52-3.96-6.5-7.35l-16.12-27.43h-7.78v35.63h-19.51V466.2c4.24-0.47,8.58-0.82,13.01-1.06
	c4.43-0.24,8.44-0.35,12.02-0.35c13.67,0,23.68,2.31,30.05,6.93c6.36,4.62,9.54,11.64,9.54,21.07
	C1144.15,496.75,1143.66,500.24,1142.67,503.25 M1119.13,482.11c-3.11-2.4-7.35-3.61-12.73-3.61c-1.7,0-3.16,0.05-4.38,0.14
	c-1.23,0.09-2.26,0.19-3.11,0.28v32.66h6.65c5.66,0,10.11-1.39,13.36-4.17c3.25-2.78,4.88-7.05,4.88-12.8
	C1123.79,488.69,1122.24,484.52,1119.13,482.11"/>
<path class="st0" d="M1211.6,537.19h-32.66l-7.78,23.19h-19.23l32.8-93.33c1.13-0.47,2.71-0.92,4.74-1.34
	c2.03-0.43,4.22-0.64,6.58-0.64c1.04,0,2.19,0.09,3.46,0.28c1.27,0.19,2.52,0.59,3.75,1.2c1.22,0.61,2.38,1.48,3.46,2.62
	c1.08,1.13,1.96,2.69,2.62,4.67l30.4,86.54h-20.08L1211.6,537.19z M1182.61,523.05h25.31l-12.44-40.3L1182.61,523.05z"/>
<path class="st0" d="M1310.13,509.05c-2.07,4.24-4.88,7.66-8.41,10.25c-3.54,2.59-7.64,4.46-12.3,5.59
	c-4.67,1.13-9.59,1.7-14.78,1.7h-6.79v33.79h-19.51V466.2c4.24-0.47,8.58-0.82,13.01-1.06c4.43-0.24,8.44-0.35,12.02-0.35
	c13.86,0,23.97,2.43,30.33,7.28c6.36,4.85,9.54,11.99,9.54,21.42C1313.24,499.62,1312.21,504.81,1310.13,509.05 M1288.43,482.18
	c-3.35-2.45-7.71-3.68-13.08-3.68c-3.02,0-5.56,0.14-7.64,0.42v33.94h4.67c6.88,0,12.11-1.34,15.7-4.03
	c3.58-2.69,5.38-7.47,5.38-14.35C1293.45,488.73,1291.77,484.63,1288.43,482.18"/>
<path class="st0" d="M1324.77,465.28c1.27-0.14,2.24-0.21,2.9-0.21c1.41,0,2.85,0.14,4.31,0.42c1.46,0.28,2.81,0.82,4.03,1.63
	c1.23,0.8,2.24,1.91,3.04,3.32c0.8,1.41,1.2,3.3,1.2,5.65v84.28h-19.37v-94.6C1322.2,465.59,1323.5,465.43,1324.77,465.28"/>
<path class="st0" d="M1350.57,481.48v-0.14c-0.19-1.13-0.31-2.07-0.35-2.83c-0.05-0.76-0.07-1.65-0.07-2.69c0-2.54,0.92-4.88,2.76-7
	c1.84-2.12,4.93-3.18,9.26-3.18h66.46c0.28,1.98,0.43,4.01,0.43,6.08c0,2.45-0.85,4.69-2.54,6.71c-1.7,2.03-4.71,3.04-9.05,3.04
	h-17.82v78.9h-19.51v-78.9H1350.57z"/>
<path class="st0" d="M1498.36,503.25c-0.99,3.02-2.33,5.66-4.03,7.92c-1.7,2.26-3.63,4.15-5.8,5.66c-2.17,1.51-4.38,2.69-6.65,3.54
	l23.33,39.03c-1.79,0.75-3.67,1.34-5.66,1.77c-1.98,0.42-3.86,0.63-5.65,0.63c-3.49,0-6.41-0.75-8.77-2.26
	c-2.36-1.51-4.52-3.96-6.51-7.35l-16.12-27.43h-7.78v35.63h-19.51V466.2c4.24-0.47,8.58-0.82,13.01-1.06
	c4.43-0.24,8.44-0.35,12.02-0.35c13.67,0,23.68,2.31,30.05,6.93c6.36,4.62,9.55,11.64,9.55,21.07
	C1499.85,496.75,1499.35,500.24,1498.36,503.25 M1474.82,482.11c-3.11-2.4-7.35-3.61-12.73-3.61c-1.7,0-3.16,0.05-4.38,0.14
	c-1.22,0.09-2.26,0.19-3.11,0.28v32.66h6.65c5.65,0,10.11-1.39,13.36-4.17c3.25-2.78,4.88-7.05,4.88-12.8
	C1479.49,488.69,1477.93,484.52,1474.82,482.11"/>
<path class="st0" d="M1568.89,537.19h-32.66l-7.78,23.19h-19.23l32.8-93.33c1.13-0.47,2.71-0.92,4.74-1.34
	c2.03-0.43,4.22-0.64,6.57-0.64c1.04,0,2.19,0.09,3.46,0.28c1.27,0.19,2.52,0.59,3.75,1.2c1.22,0.61,2.38,1.48,3.46,2.62
	c1.08,1.13,1.96,2.69,2.62,4.67l30.4,86.54h-20.08L1568.89,537.19z M1539.9,523.05h25.31l-12.44-40.3L1539.9,523.05z"/>
<path class="st0" d="M1641.67,508.91h34.36v42.42c-0.85,1.04-2.17,2.21-3.96,3.54c-1.79,1.32-4.1,2.57-6.93,3.75
	c-2.83,1.18-6.18,2.17-10.04,2.97c-3.87,0.8-8.25,1.2-13.15,1.2c-7.64,0-14.26-1.25-19.87-3.75c-5.61-2.5-10.23-5.94-13.86-10.32
	c-3.63-4.38-6.32-9.62-8.06-15.7c-1.74-6.08-2.61-12.7-2.61-19.87c0-7.07,0.92-13.6,2.76-19.58c1.84-5.99,4.64-11.2,8.41-15.62
	c3.77-4.43,8.53-7.89,14.28-10.39c5.75-2.5,12.54-3.75,20.36-3.75c3.77,0,7.47,0.45,11.1,1.34c3.63,0.89,6.83,2.05,9.61,3.46
	c2.78,1.41,5.02,2.99,6.72,4.74c1.7,1.74,2.54,3.51,2.54,5.3c0,1.6-0.68,3.39-2.05,5.37c-1.37,1.98-2.99,3.77-4.88,5.37
	c-1.13-1.04-2.43-2.12-3.89-3.25c-1.46-1.13-3.11-2.17-4.95-3.11c-1.84-0.94-3.91-1.72-6.22-2.33c-2.31-0.61-4.88-0.92-7.71-0.92
	c-5.09,0-9.33,0.94-12.73,2.83c-3.39,1.89-6.08,4.36-8.06,7.42c-1.98,3.06-3.39,6.58-4.24,10.54c-0.85,3.96-1.27,8.06-1.27,12.3
	c0,4.53,0.45,8.86,1.34,13.01c0.9,4.15,2.36,7.8,4.38,10.96c2.03,3.16,4.76,5.71,8.2,7.64c3.44,1.93,7.71,2.9,12.8,2.9
	c2.45,0,4.53-0.19,6.22-0.56c1.7-0.38,3.11-0.8,4.24-1.27c1.23-0.57,2.31-1.22,3.25-1.98v-20.22h-16.12V508.91z"/>
<path class="st0" d="M1766.33,532.03c-1.6,6.08-4.15,11.41-7.63,15.98c-3.49,4.57-7.96,8.18-13.43,10.82
	c-5.47,2.64-12.07,3.96-19.8,3.96c-7.64,0-14.14-1.34-19.51-4.03c-5.37-2.69-9.76-6.32-13.15-10.89c-3.39-4.57-5.87-9.88-7.43-15.91
	c-1.55-6.03-2.33-12.4-2.33-19.09c0-6.6,0.85-12.87,2.55-18.8c1.7-5.94,4.34-11.15,7.92-15.62c3.58-4.48,8.1-8.04,13.57-10.68
	c5.47-2.64,11.97-3.96,19.52-3.96c7.45,0,13.83,1.27,19.16,3.82c5.33,2.54,9.69,6.01,13.08,10.39c3.39,4.38,5.89,9.54,7.49,15.48
	c1.61,5.94,2.4,12.35,2.4,19.23C1768.74,519.51,1767.94,525.95,1766.33,532.03 M1747.67,500c-0.75-4.05-2.03-7.61-3.82-10.68
	c-1.79-3.06-4.1-5.49-6.93-7.28c-2.83-1.79-6.31-2.69-10.46-2.69c-4.34,0-7.99,0.9-10.96,2.69c-2.97,1.79-5.38,4.22-7.21,7.28
	c-1.84,3.06-3.16,6.62-3.96,10.68c-0.8,4.05-1.2,8.34-1.2,12.87c0,4.53,0.4,8.86,1.2,13.01c0.8,4.15,2.1,7.82,3.89,11.03
	c1.79,3.2,4.15,5.75,7.07,7.63c2.92,1.88,6.5,2.83,10.75,2.83c4.24,0,7.82-0.94,10.75-2.83c2.92-1.88,5.26-4.43,7-7.63
	c1.74-3.21,3.02-6.88,3.82-11.03c0.8-4.15,1.2-8.48,1.2-13.01C1748.8,508.34,1748.42,504.05,1747.67,500"/>
</svg>
